<?xml version="1.0" encoding="UTF-8" standalone="no"?>
<svg
xmlns:dc="http://purl.org/dc/elements/1.1/"
xmlns:cc="http://creativecommons.org/ns#"
xmlns:rdf="http://www.w3.org/1999/02/22-rdf-syntax-ns#"
xmlns:svg="http://www.w3.org/2000/svg"
xmlns="http://www.w3.org/2000/svg"
width="250pt"
height="250pt"
viewBox="0 0 250 250" >
<path
d="M 164.30 49.06 C 189.41 42.52 217.83 55.00 230.81 77.28 C 232.77 80.75 234.31 84.46 235.19 88.36 C 236.68 87.18 238.15 85.99 239.63 84.81 C 237.95 92.44 236.14 100.03 234.43 107.65 C 228.45 103.25 222.21 99.21 216.18 94.88 C 218.45 94.62 220.71 94.35 222.98 94.08 C 218.06 82.41 209.97 71.43 198.31 65.83 C 187.17 60.34 173.46 59.55 162.12 64.91 C 151.33 69.76 142.80 78.76 137.32 89.13 C 144.79 94.71 149.88 103.02 152.61 111.85 C 154.25 110.54 155.91 109.27 157.64 108.08 C 155.70 115.73 153.86 123.41 152.28 131.15 C 146.35 126.64 140.19 122.44 134.26 117.93 C 136.48 117.62 138.70 117.32 140.92 117.01 C 137.43 108.09 131.30 99.77 122.55 95.46 C 115.97 92.31 108.31 90.86 101.14 92.64 C 90.77 95.07 82.09 102.65 77.10 111.91 C 73.26 109.28 69.10 107.10 64.56 106.00 C 70.47 93.62 81.65 83.71 95.01 80.21 C 104.87 77.34 115.54 78.22 125.09 81.84 C 132.30 65.72 147.13 53.25 164.30 49.06 Z"
style="fill:#fff;fill-opacity:1" />
<path
d="M 28.95 117.85 C 38.02 110.95 49.70 107.52 61.06 108.49 C 70.04 109.81 78.31 115.05 83.57 122.42 C 89.53 130.44 91.54 140.62 92.06 150.41 C 87.94 150.43 83.82 150.43 79.70 150.41 C 79.78 140.64 76.02 130.03 67.23 124.87 C 56.64 118.87 42.61 121.91 33.93 129.96 C 21.34 141.55 19.99 162.99 30.75 176.24 C 37.15 184.51 47.55 189.23 57.96 189.09 C 118.64 189.12 179.32 189.06 239.99 189.12 C 239.92 193.61 239.93 198.09 239.99 202.58 C 179.66 202.62 119.34 202.58 59.01 202.60 C 44.50 203.03 29.86 196.47 20.75 185.11 C 13.84 176.73 9.96 165.87 10.18 154.99 C 10.08 140.57 17.35 126.38 28.95 117.85 Z"
style="fill:#fff;fill-opacity:1" />
</svg>
